<svg width="20" height="20" viewBox="0 0 20 20" fill="none" xmlns="http://www.w3.org/2000/svg">
<path d="M10.0154 5.81608C10.1972 5.81585 10.3768 5.85439 10.5425 5.92911C10.7081 6.00384 10.8559 6.11304 10.976 6.24941L16.4266 12.445C16.5988 12.6503 16.6839 12.9148 16.6637 13.1821C16.6434 13.4493 16.5194 13.698 16.3182 13.875C16.117 14.052 15.8544 14.1433 15.5868 14.1292C15.3192 14.1152 15.0676 13.997 14.886 13.8L10.1199 8.38219C10.1069 8.36732 10.0908 8.3554 10.0728 8.34724C10.0548 8.33907 10.0352 8.33485 10.0154 8.33485C9.99567 8.33485 9.97612 8.33907 9.95811 8.34724C9.9401 8.3554 9.92404 8.36732 9.911 8.38219L5.14489 13.8C5.05698 13.9047 4.94902 13.9909 4.82734 14.0533C4.70567 14.1157 4.57274 14.1532 4.43638 14.1636C4.30001 14.1739 4.16295 14.1569 4.03326 14.1135C3.90356 14.0701 3.78385 14.0012 3.68116 13.9109C3.57847 13.8206 3.49487 13.7106 3.43528 13.5875C3.37569 13.4644 3.3413 13.3307 3.33414 13.1941C3.32698 13.0575 3.3472 12.9209 3.3936 12.7922C3.44 12.6636 3.51165 12.5455 3.60433 12.445L9.05322 6.25163C9.17353 6.11492 9.32155 6.00537 9.48745 5.93028C9.65335 5.85518 9.83334 5.81625 10.0154 5.81608V5.81608Z" fill="#008080"/>
</svg>
